<?xml version="1.0" encoding="UTF-8"?>
<svg id="Layer_1" xmlns="http://www.w3.org/2000/svg" viewBox="0 0 255.42 131.55">
  <defs>
    <style>
      .cls-1 {
        fill: none;
        stroke: #231f20;
      }

      .cls-1, .cls-2, .cls-3, .cls-4, .cls-5, .cls-6 {
        stroke-miterlimit: 10;
      }

      .cls-2 {
        fill: #e78424;
      }

      .cls-2, .cls-3, .cls-5, .cls-6 {
        stroke-width: 2px;
      }

      .cls-2, .cls-5 {
        stroke: #000001;
      }

      .cls-3 {
        fill: #442d7c;
        stroke: #452d7c;
      }

      .cls-3, .cls-5 {
        fill-rule: evenodd;
      }

      .cls-7 {
        fill: #f1f2f2;
        font-size: 13px;
        letter-spacing: 0em;
      }

      .cls-7, .cls-8 {
        font-family: ArialMT, Arial;
      }

      .cls-4 {
        fill: #524fa1;
        stroke: #524fa1;
        stroke-width: 3px;
      }

      .cls-8 {
        fill: #000001;
        font-size: 15px;
        letter-spacing: 0em;
      }

      .cls-9 {
        fill: #cbdb2a;
      }

      .cls-5 {
        fill: #ec4924;
      }

      .cls-6 {
        fill: #00addc;
        stroke: #00addc;
      }

      .cls-10 {
        fill: #82d4f1;
      }
    </style>
  </defs>
  <rect class="cls-10" x="1.58" y=".68" width="252" height="129.6" rx="18" ry="18"/>
  <g>
    <text class="cls-8" transform="translate(22.88 89.46)"><tspan x="0" y="0">Mapped</tspan><tspan x="5.4" y="18">Reads</tspan></text>
    <text class="cls-8" transform="translate(187.42 89.46)"><tspan x="0" y="0">Read</tspan><tspan x="-5.79" y="18">Counts</tspan></text>
    <g>
      <path class="cls-3" d="M98.78,28.14c0-5.26,4.3-9.52,9.6-9.52h38.4c5.3,0,9.6,4.26,9.6,9.52v38.57c0,5.26-4.3,9.52-9.6,9.52h-38.4c-5.3,0-9.6-4.26-9.6-9.52V28.14Z"/>
      <text class="cls-7" transform="translate(117.49 45.38)"><tspan x="0" y="0">JGI</tspan><tspan x="-18.72" y="15.6">readcount</tspan></text>
    </g>
    <path class="cls-5" d="M94.96,47.77l-12.16,5.44c-.25.11-.52-.07-.52-.34v-10.88c0-.27.28-.45.52-.34l12.16,5.44c.29.13.29.55,0,.68Z"/>
    <path class="cls-5" d="M172.66,47.77l-12.16,5.44c-.25.11-.52-.07-.52-.34v-10.88c0-.27.28-.45.52-.34l12.16,5.44c.29.13.29.55,0,.68Z"/>
    <g>
      <circle class="cls-2" cx="49.87" cy="47.43" r="28.8"/>
      <line class="cls-6" x1="55.21" y1="35.14" x2="69.62" y2="35.14"/>
      <line class="cls-6" x1="58.1" y1="38.74" x2="69.54" y2="38.74"/>
      <g>
        <line class="cls-6" x1="30.92" y1="35.14" x2="45.7" y2="35.14"/>
        <line class="cls-6" x1="35.78" y1="38.81" x2="50.55" y2="38.81"/>
        <line class="cls-6" x1="32.68" y1="42.48" x2="44.48" y2="42.48"/>
        <line class="cls-6" x1="38.05" y1="46.15" x2="52.83" y2="46.15"/>
      </g>
      <line class="cls-6" x1="43.56" y1="60.87" x2="63.72" y2="60.87"/>
      <line class="cls-6" x1="44.2" y1="64.48" x2="57.24" y2="64.47"/>
      <line class="cls-6" x1="44.95" y1="68.08" x2="54.02" y2="68.08"/>
      <line class="cls-4" x1="29.88" y1="31.54" x2="69.86" y2="31.54"/>
      <line class="cls-4" x1="37.08" y1="57.28" x2="64.12" y2="57.28"/>
    </g>
    <g>
      <circle class="cls-2" cx="205.29" cy="47.43" r="28.8"/>
      <path class="cls-9" d="M188.48,65.03c.16-.64,1.41-.62,1.9-.83.64-.28,1.21-.73,1.73-1.26.59-.59,1.13-1.27,1.69-1.91.52-.59,1.29-1.11,1.73-1.77s.32-1.74.39-2.62c.16-2.1.4-4.19.63-6.28.1-.87.2-1.73.29-2.6.16-1.39.32-2.82.87-4.06.4-.89.98-1.68,1.22-2.65.11-.45.13-.92.21-1.38.22-1.34.92-2.52,1.84-3.29.48-.4,1.01-.68,1.57-.84.76-.22,1.14.13,1.72.72.56.56,1.13,1.14,1.56,1.84,1.35,2.19,1.22,5.25,2.23,7.69.48,1.16,1.21,2.16,1.56,3.38.25.89.29,1.84.32,2.79.04,1.29.07,2.6.38,3.83s.95,2.4,1.92,2.94c0,0,.3,2.46.39,2.74.26.76.65,1.69,1.21,2.18.35.31.78.45,1.19.58.99.32,1.98.64,2.97.96.43.14.71.2,1.09-.08"/>
      <polyline class="cls-1" points="223.29 65.43 187.29 65.34 187.33 29.43 187.29 65.34"/>
    </g>
  </g>
</svg>